<svg width="100%" height="100%" viewBox="0 0 1330 317" version="1.1" xmlns="http://www.w3.org/2000/svg" xml:space="preserve" style="fill-rule:evenodd;clip-rule:evenodd;stroke-linejoin:round;stroke-miterlimit:2;"><path d="M132.99,311.156l-89.446,-0l-0,-215.351c-0,-27.413 6.217,-49.739 18.652,-66.979c13.848,-19.217 34.055,-28.826 60.62,-28.826c14.696,-0 27.838,2.685 39.425,8.054c14.13,7.066 25.435,16.957 33.913,29.675c8.478,12.717 12.718,26.848 12.718,42.391c-0,13.848 -3.25,26.849 -9.751,39.001c-6.5,12.152 -15.543,21.055 -27.13,26.707c5.652,1.13 11.022,3.391 16.109,6.782c3.391,2.261 7.63,6.077 12.717,11.446c6.783,7.066 11.729,15.756 14.837,26.071c3.109,10.316 4.663,21.267 4.663,32.854c0,25.717 -8.125,46.843 -24.375,63.376c-16.25,16.532 -37.234,24.799 -62.952,24.799Zm-50.022,-45.783l0.854,2.543c0.848,2.826 2.124,4.663 3.829,5.511c1.417,0.848 3.687,1.272 6.809,1.272l12.771,-0c8.513,-0 17.451,-0.716 26.812,-2.146c16.176,-2.57 28.664,-7.715 37.464,-15.434c10.214,-8.862 15.321,-21.012 15.321,-36.45c-0,-15.438 -4.044,-28.089 -12.131,-37.954c-8.088,-9.865 -19.793,-15.51 -35.116,-16.937l-26.82,-2.146l-8.935,0c-5.109,0 -9.863,0.636 -14.261,1.908c-4.398,1.272 -6.597,3.745 -6.597,7.419l-0,92.414Zm-0,-155.154c-0,9.891 0.426,15.826 1.278,17.804c1.987,4.805 7.24,7.207 15.758,7.207c5.679,-0 11.997,-0.565 18.954,-1.696c6.957,-1.13 14.978,-2.685 24.064,-4.663c9.085,-1.978 16.326,-7.419 21.722,-16.321c5.397,-8.902 8.095,-18.44 8.095,-28.614c-0,-13.283 -4.522,-24.446 -13.566,-33.49c-9.043,-9.043 -20.348,-13.565 -33.913,-13.565c-9.892,-0 -18.441,2.897 -25.647,8.69c-7.207,5.794 -12.223,13.495 -15.049,23.104c-0.566,1.978 -0.989,4.804 -1.272,8.478c-0.283,3.674 -0.424,7.489 -0.424,11.446l-0,21.62Z" style="fill:#930014;fill-rule:nonzero;"/><path d="M451.353,311.156l-33.914,-0l-4.239,-28.403c-12.718,11.45 -23.598,19.467 -32.642,24.051c-11.587,6.01 -24.728,9.015 -39.424,9.015c-26.848,-0 -49.528,-9.842 -68.039,-29.525c-18.511,-19.684 -27.766,-43.12 -27.766,-70.308c-0,-27.188 9.326,-50.412 27.978,-69.671c18.653,-19.26 41.544,-28.89 68.675,-28.89c20.913,0 40.343,6.43 58.289,19.289c17.945,12.858 28.614,29.321 32.005,49.386l19.077,125.056Zm-174.655,-94.534c0,18.772 6.289,34.769 18.865,47.992c12.576,13.223 28.332,19.835 47.267,19.835c17.804,-0 32.995,-6.612 45.571,-19.835c12.576,-13.223 18.864,-28.936 18.864,-47.137c0,-18.772 -6.147,-34.912 -18.44,-48.42c-12.294,-13.508 -27.767,-20.262 -46.419,-20.262c-18.37,0 -33.914,6.684 -46.631,20.05c-12.718,13.367 -19.077,29.292 -19.077,47.777Z" style="fill:#930014;fill-rule:nonzero;"/><path d="M457.287,268.658l27.131,-16.003c2.826,8.933 7.843,16.96 15.049,24.081c7.207,7.12 15.191,10.68 23.952,10.68c8.761,0 16.603,-3.171 23.527,-9.515c6.924,-6.343 10.386,-13.884 10.386,-22.623c0,-11.274 -6.5,-20.717 -19.5,-28.33c-3.674,-2.256 -15.261,-7.049 -34.761,-14.38c-9.044,-3.382 -16.463,-9.02 -22.256,-16.913c-5.794,-7.894 -8.69,-16.631 -8.69,-26.214c-0,-14.095 5.157,-26.147 15.473,-36.155c10.315,-10.009 22.538,-15.013 36.669,-15.013c9.608,0 18.228,2.544 25.859,7.631c6.5,4.239 12.576,10.88 18.228,19.924l-23.739,14.837c-3.392,-9.892 -10.174,-14.837 -20.348,-14.837c-5.935,-0 -11.093,2.043 -15.473,6.13c-4.381,4.087 -6.571,8.95 -6.571,14.589c-0,7.047 3.109,12.828 9.326,17.341c1.696,1.408 12.859,6.058 33.489,13.949c13.566,5.357 23.881,11.841 30.946,19.454c8.479,9.022 12.718,20.297 12.718,33.827c0,18.609 -6.429,34.044 -19.288,46.307c-12.859,12.262 -28.615,18.394 -47.267,18.394c-14.696,-0 -27.696,-4.771 -39.001,-14.314c-8.478,-7.021 -17.098,-17.97 -25.859,-32.847Z" style="fill:#930014;fill-rule:nonzero;"/><path d="M800.661,220.013l-0.424,9.75l-136.078,0c-6.217,0 -11.233,0.636 -15.049,1.908c-3.815,1.272 -5.723,4.31 -5.723,9.114c0,4.24 2.403,9.468 7.207,15.685c3.109,3.957 7.207,8.337 12.294,13.142c5.087,4.804 11.304,8.619 18.652,11.446c7.348,2.826 14.696,4.239 22.044,4.239c7.913,-0 16.25,-1.979 25.011,-5.935c6.5,-2.826 13.989,-7.489 22.468,-13.989l19.5,22.891c-18.37,18.37 -40.555,27.555 -66.555,27.555c-27.131,-0 -50.164,-9.609 -69.099,-28.827c-18.935,-19.217 -28.402,-42.25 -28.402,-69.098c-0,-27.414 9.114,-50.941 27.342,-70.583c18.229,-19.641 41.05,-29.462 68.463,-29.462c27.413,0 50.658,10.104 69.735,30.31c19.076,20.207 28.614,44.158 28.614,71.854Zm-148.795,-20.348l97.925,0c3.109,0 6.076,-0.282 8.902,-0.848c2.826,-0.565 4.239,-2.967 4.239,-7.206c0,-2.261 -1.271,-5.652 -3.815,-10.174c-2.543,-4.522 -4.946,-8.337 -7.207,-11.446c-5.652,-7.065 -12.646,-12.788 -20.984,-17.169c-8.337,-4.38 -17.027,-6.57 -26.07,-6.57c-8.479,-0 -17.381,2.278 -26.707,6.835c-9.326,4.557 -16.533,10.397 -21.62,17.52c-3.391,4.844 -5.864,9.047 -7.419,12.608c-1.554,3.562 -2.331,6.623 -2.331,9.184c-0,3.418 1.695,5.84 5.087,7.266Z" style="fill:#930014;fill-rule:nonzero;"/><path d="M861.705,311.156l-33.489,-0l-0,-305.221l33.489,-0l0,164.48c0,6.5 0.921,12.576 2.762,18.228c1.842,5.653 5.312,8.479 10.413,8.479c2.548,-0 5.239,-1.009 8.074,-3.027c2.835,-2.018 6.376,-5.911 10.624,-11.678l45.856,-60.56l43.664,0.231l-74.345,86.897l74.617,102.171l-39.875,0.02l-58.163,-79.637l-2.484,-2.994c-1.938,-1.996 -3.597,-3.423 -4.974,-4.279c-1.934,-1.139 -4.008,-1.709 -6.22,-1.709c-3.316,-0 -5.803,1.06 -7.462,3.179c-1.658,2.12 -2.487,5.017 -2.487,8.691l0,76.729Z" style="fill:#930014;fill-rule:nonzero;"/><path d="M1083.41,316.667c-21.478,-0 -40.413,-5.653 -56.805,-16.957c-18.652,-13 -27.978,-29.816 -27.978,-50.446l-0,-127.176l33.489,0l0,115.306c0,13 5.158,24.093 15.473,33.278c10.315,9.184 21.973,13.777 34.973,13.777c14.131,-0 26.071,-4.875 35.821,-14.625c9.751,-9.75 14.626,-21.691 14.626,-35.821l-0,-111.915l33.489,0l0,127.176c0,20.348 -9.043,37.022 -27.131,50.022c-16.109,11.587 -34.761,17.381 -55.957,17.381Z" style="fill:#930014;fill-rule:nonzero;"/><path d="M1184.73,152.61l-0,-30.522l7.206,0c5.652,0 9.185,-0.565 10.598,-1.695c1.413,-1.131 2.12,-4.381 2.12,-9.75l-0,-43.664l33.489,0l0,44.511c0,3.109 0.49,5.653 1.471,7.631c0.98,1.978 2.731,2.967 5.252,2.967l40.756,0l0,30.522l-36.033,0c-4.804,0 -7.913,0.707 -9.326,2.12c-1.413,1.413 -2.12,5.228 -2.12,11.446l0,50.022c0,5.37 0.283,10.457 0.848,15.261c0.565,4.805 1.908,10.386 4.027,16.745c2.12,6.359 4.663,11.375 7.631,15.049c2.967,3.674 8.408,7.772 16.321,12.294c5.369,3.108 11.587,5.369 18.652,6.782l0,32.642c-23.457,-2.544 -42.816,-11.728 -58.077,-27.555c-15.261,-15.826 -22.891,-35.467 -22.891,-58.924l-0,-62.74c-0,-3.109 -0.283,-6.076 -0.848,-8.902c-0.565,-2.827 -2.968,-4.24 -7.207,-4.24l-11.869,0Z" style="fill:#930014;fill-rule:nonzero;"/></svg>